<?xml version="1.0" encoding="utf-8"?>
<!-- Generator: Adobe Illustrator 19.0.0, SVG Export Plug-In . SVG Version: 6.00 Build 0)  -->
<svg version="1.1" id="Layer_1" xmlns="http://www.w3.org/2000/svg" xmlns:xlink="http://www.w3.org/1999/xlink" x="0px" y="0px"
	 viewBox="150 310 237 158" style="enable-background:new 150 310 237 158;" xml:space="preserve">
<style type="text/css">
	.st0{fill:#EF422E;}
</style>
<g>
	<path class="st0" d="M299.1,422.5l-9.1,34h7.9l1.7-6.6h10.9l1.8,6.6h7.8l-9.1-34H299.1z M301.3,443.7l3.8-14.3l3.8,14.3H301.3z"/>
	<path class="st0" d="M340.7,414c0.2,0.1,0.5,0.2,0.8,0.2c0.5,0,1-0.2,1.4-0.6l15.5-15.5l15.5,15.5c0.4,0.4,0.9,0.6,1.4,0.6
		c0.3,0,0.5-0.1,0.8-0.2c0.8-0.3,1.2-1,1.2-1.9v-60.6c0-0.5-0.2-1-0.6-1.4l-15.8-15.8c-1.5-1.5-3.4-1.6-5,0L340,350.2
		c-0.4,0.4-0.6,0.9-0.6,1.4v60.6C339.4,413,339.9,413.7,340.7,414z M346.5,353.7l11.9-11.9l11.9,11.9v8.8l-9.4-9.4
		c-1.3-1.3-3.7-1.2-5,0l-9.4,9.4V353.7z M346.5,372.5l11.9-11.9l11.9,11.9v8.8l-9.4-9.4c-1.7-1.7-3.5-1.6-5,0l-9.4,9.4V372.5z
		 M346.5,391.2l11.9-11.9l11.9,11.9v8.8l-9.4-9.4c-1.7-1.7-3.3-1.7-5,0l-9.4,9.4V391.2z"/>
	<path class="st0" d="M302.1,413.2h3.1c1.6,0,2.2-0.5,2.2-2.2v-22.6c0-2.2,0-2.2,2.2-2.2h5.1c9.1,0,16.5-5.2,16.5-18.7V355
		c0-13.5-7.4-18.7-16.5-18.7h-12.5c-1.6,0-2.2,0.5-2.2,2.2V411C299.9,412.7,300.5,413.2,302.1,413.2z M307.4,345.6
		c0-2.2,0-2.2,2.2-2.2h5.1c6,0,9,3.6,9,13.5v8.8c0,9.9-3,13.5-9,13.5h-5.1c-2.2,0-2.2,0-2.2-2.2V345.6z"/>
	<polygon class="st0" points="332.2,446.2 326.9,422.5 318.3,422.5 327,456.4 337.4,456.4 346.1,422.5 337.5,422.5 	"/>
	<path class="st0" d="M241.2,426.2c-3.2-3.7-6.6-3.7-10.8-3.7h-10.9v34h10.9c4.3,0,7.7-0.1,10.8-3.7c3-3.4,4.2-8.1,4.3-13.1l0,0
		c0,0,0,0,0-0.1s0-0.1,0-0.2s0-0.1,0-0.2l0,0C245.4,434.4,244.2,429.6,241.2,426.2z M235.2,447.3c-1.4,2.4-3.6,2.6-5.7,2.6h-1.9
		v-20.8h1.9c2.1,0,4.3,0.2,5.7,2.5c1.2,2.2,1.9,4.9,1.9,7.8C237.1,442.4,236.5,445.1,235.2,447.3z"/>
	<polygon class="st0" points="369.1,422.5 363.2,437.3 357.3,422.5 348.7,422.5 358.9,445.6 358.9,456.4 367.5,456.4 367.5,445.6 
		377.7,422.5 	"/>
	<path class="st0" d="M203.3,413.2h3.3c1.4,0,2.1,0,2.4-1.6l1.3-7.6c0.4-2.2,0.3-2.2,2.5-2.2h13.5c2,0,2,0,2.4,2.2l1.3,7.6
		c0.3,1.6,1,1.6,2.4,1.6h3.3c1.1,0,2.2,0,1.9-1.9L224,338.6l5.5-19.1l-6.3-1.6l-3.6,12.5l-3.6-12.5l-6.3,1.6l5.5,19l-13.7,72.8
		C201.1,413.2,202.2,413.2,203.3,413.2z M212.4,392.6l6.7-39c0.1-0.5,0.8-0.5,0.9,0l6.7,39c0.3,2.2,0.3,2.2-1.9,2.2h-10.5
		C212.1,394.8,212.1,394.8,212.4,392.6z"/>
	<polygon class="st0" points="202.8,422.5 195,422.5 195,456.4 215.1,456.4 215.1,449.8 202.8,449.8 	"/>
	<polygon class="st0" points="277.9,442.2 267,422.5 259.2,422.5 259.2,456.4 267,456.4 267,437 277.9,456.4 285.7,456.4 
		285.7,422.5 277.9,422.5 	"/>
	<path class="st0" d="M176.2,421.9c-9,0-14.5,7.1-14.5,17.6v0.1c0,10,5.6,17.3,14.5,17.3l0,0c8.9,0,14.5-7.4,14.5-17.4
		C190.7,429,185.2,421.9,176.2,421.9z M176.2,450.3c-4.7,0-6.3-7.1-6.3-10.7c0-3.7,0.9-11.2,6.3-11.2c5.4,0,6.3,7.5,6.3,11.2
		C182.5,443.2,180.9,450.3,176.2,450.3z"/>
	<path class="st0" d="M178.9,413.7c9,0,16.4-4.9,16.5-18.4c0.1-1.9-0.5-2.5-2.2-2.5h-3.1c-1.5,0-2.2,0.4-2.2,1.8
		c-0.3,9-3.3,12.2-9,12.2c-6,0-9-3.6-9-13.5v-36.7c0-9.9,3-13.5,9-13.5c5.7,0,8.7,3.2,9,12.2c0,1.3,0.7,1.8,2.2,1.8h3.1
		c1.6,0,2.3-0.7,2.2-2.5c-0.1-13.5-7.5-18.4-16.5-18.4c-9.1,0-16.5,5.2-16.5,18.7V395C162.5,408.5,169.8,413.7,178.9,413.7z"/>
	<path class="st0" d="M290.3,338.6c0-1.6-0.5-2.2-2.2-2.2h-2.2c-1.3,0-1.9,0.3-2.1,1.3L268.2,396c-0.1,0.5-0.8,0.5-0.9,0l-15.6-58.3
		c-0.2-1-0.8-1.3-2.1-1.3h-2.2c-1.6,0-2.2,0.5-2.2,2.2V411c0,1.6,0.5,2.2,2.2,2.2h3.1c1.6,0,2.2-0.5,2.2-2.2v-42.7
		c0-0.4,0.5-0.6,0.7,0l11.6,43.4c0.4,1.5,1.3,1.5,2.4,1.5h0.7c1.1,0,2,0,2.4-1.5l11.6-43.4c0.1-0.6,0.7-0.4,0.7,0V411
		c0,1.6,0.5,2.2,2.2,2.2h3.1c1.6,0,2.2-0.5,2.2-2.2L290.3,338.6L290.3,338.6z"/>
</g>
</svg>
